<svg xmlns="http://www.w3.org/2000/svg" viewBox="0 0 400 300" width="400" height="300">
  <rect x="0" y="0" width="400" height="300" rx="18" fill="#EAE1D2"/>
  
  <g stroke="#2B2118" stroke-width="2.5" stroke-linejoin="round" stroke-linecap="round">
    <rect x="70" y="150" width="260" height="70" rx="14" fill="#5C7256"/>
    <rect x="70" y="95" width="260" height="70" rx="16" fill="#3E4F3A"/>
    <rect x="55" y="120" width="34" height="95" rx="14" fill="#3E4F3A"/>
    <rect x="311" y="120" width="34" height="95" rx="14" fill="#3E4F3A"/>
    <rect x="96" y="150" width="66" height="42" rx="10" fill="#8CA184" stroke-width="1.5"/>
    <rect x="167" y="150" width="66" height="42" rx="10" fill="#8CA184" stroke-width="1.5"/>
    <rect x="238" y="150" width="66" height="42" rx="10" fill="#8CA184" stroke-width="1.5"/>
    <rect x="80" y="222" width="14" height="24" rx="3" fill="#8A5A2C"/>
    <rect x="306" y="222" width="14" height="24" rx="3" fill="#8A5A2C"/>
  </g>

  
  <g transform="translate(316,20)" opacity="0.9">
    <rect x="0" y="0" width="64" height="26" rx="3" fill="#FBF7EF" stroke="#2B2118" stroke-width="1.5" stroke-dasharray="3 3"/>
    <circle cx="10" cy="13" r="2" fill="none" stroke="#2B2118" stroke-width="1.2"/>
  </g>
</svg>